inDegrees=yes
name=ik_S47_A12_T02
DataType=double
version=3
OpenSimVersion=4.3-2021-08-27-4bc7ad9
endheader
time	pelvis_tilt	pelvis_list	pelvis_rotation	pelvis_tx	pelvis_ty	pelvis_tz	hip_flexion_r	hip_adduction_r	hip_rotation_r	knee_angle_r	knee_angle_r_beta	ankle_angle_r	subtalar_angle_r	mtp_angle_r	hip_flexion_l	hip_adduction_l	hip_rotation_l	knee_angle_l	knee_angle_l_beta	ankle_angle_l	subtalar_angle_l	mtp_angle_l	lumbar_extension	lumbar_bending	lumbar_rotation	arm_flex_r	arm_add_r	arm_rot_r	elbow_flex_r	pro_sup_r	wrist_flex_r	wrist_dev_r	arm_flex_l	arm_add_l	arm_rot_l	elbow_flex_l	pro_sup_l	wrist_flex_l	wrist_dev_l
8.239999999999913	-3.081714783536902	1.523794993778848	42.61542341280002	0	0.9399999999999999	0	33.41960742985621	-9.596474411808256	-9.04325800106737	38.95216611571762	0.679843549503043	0	0	0	33.41960742985621	-9.596474411808256	-9.04325800106737	38.95216611571762	0.679843549503043	0	0	0	-1.082871559878261	3.592992754660703	-4.582692856500708	20.90246152657492	-11.32606367448739	2.327344262419198	7.541198345107834	114.5869873709378	0	0	116.3597897257936	-4.321730510481276	20.26697404553428	-1.11361481092984	48.26840967909096	0	0
8.259999999999913	-3.133598074129127	1.527782507532854	42.38889767287349	0	0.9399999999999999	0	33.42269518799779	-9.596842136897765	-9.043816997160246	38.95513789588179	0.6798954168515533	0	0	0	33.42269518799779	-9.596842136897765	-9.043816997160246	38.95513789588179	0.6798954168515533	0	0	0	-1.117376145676351	3.630918111508369	-4.643137125151618	20.81258355443268	-11.40293581044983	2.268852919874067	7.566801557924735	114.7185269602578	0	0	116.6230439912214	-4.049086019751674	20.02321982866963	-1.149962819824493	48.22494064328506	0	0
8.279999999999912	-3.1858431114967	1.518526581367564	42.19528260885021	0	0.9399999999999999	0	33.42861030431894	-9.597547197141395	-9.044888637756131	38.9608216536348	0.6799946171382291	0	0	0	33.42861030431894	-9.597547197141395	-9.044888637756131	38.9608216536348	0.6799946171382291	0	0	0	-1.161526658902667	3.659116403913101	-4.689604921115171	20.73485754254356	-11.45448179636085	2.126911302459759	7.749651464163692	115.0073573302387	0	0	116.8498704136129	-3.772725049504532	19.80894297931316	-1.227983009603639	48.45226378947924	0	0
8.299999999999912	-3.233287659519742	1.517024756718593	42.01069434433643	0	0.9399999999999999	0	33.43032991189217	-9.597751087777615	-9.045199146001607	38.96248116481796	0.6800235810723488	0	0	0	33.43032991189217	-9.597751087777615	-9.045199146001607	38.96248116481796	0.6800235810723488	0	0	0	-1.1965938905901	3.689916308193504	-4.749274846361442	20.66090382789844	-11.53764791060091	2.054072015656563	7.72443298185686	115.062423743662	0	0	116.9761826824536	-3.580670177895968	19.73979469186954	-1.239565585495588	48.58273008686984	0	0
8.319999999999911	-3.267894576673695	1.507550154961803	41.92651571777468	0	0.9399999999999999	0	33.43413911342559	-9.598204046107286	-9.045888333904404	38.96614566451181	0.6800875386574449	0	0	0	33.43413911342559	-9.598204046107286	-9.045888333904404	38.96614566451181	0.6800875386574449	0	0	0	-1.228999177217675	3.705862699581933	-4.735414019732636	20.53892118394584	-11.63648013180558	1.792217854662228	7.705572267014812	115.171397910257	0	0	117.0434362500857	-3.2758921025721	19.66425281550405	-1.277391150551604	48.88917339629032	0	0
8.339999999999911	-3.320436453215877	1.505226609490446	41.79710389343841	0	0.9399999999999999	0	33.43818810117853	-9.598683182947173	-9.046618697382005	38.97005568251227	0.680155781345365	0	0	0	33.43818810117853	-9.598683182947173	-9.046618697382005	38.97005568251227	0.680155781345365	0	0	0	-1.268656732665858	3.739352775325267	-4.794007678456141	20.65833391657166	-11.6569473932573	2.010281952247282	7.475276357113509	115.0468750712842	0	0	117.0989204247284	-3.439860013020487	19.68415986234706	-1.137391712712515	49.10745704180344	0	0
8.359999999999911	-3.361920554088401	1.502709827926286	41.69904051696957	0	0.9399999999999999	0	33.44175799785933	-9.59910682394068	-9.047263904900621	38.97349205269795	0.6802157573194226	0	0	0	33.44175799785933	-9.59910682394068	-9.047263904900621	38.97349205269795	0.6802157573194226	0	0	0	-1.301130597185837	3.765053300384571	-4.803394689243041	20.5776183505836	-11.75570498137011	1.871205951680268	7.420393613650297	115.1054701920715	0	0	117.1040740757222	-3.223818648849741	19.7197986428723	-1.198994864130826	49.35532304034004	0	0
8.37999999999991	-3.458044442875931	1.492597002362872	41.53642614704781	0	0.9399999999999999	0	33.44629911184906	-9.599644641503186	-9.048083697848092	38.97786830316357	0.6802921372989396	0	0	0	33.44629911184906	-9.599644641503186	-9.048083697848092	38.97786830316357	0.6802921372989396	0	0	0	-1.379134767232734	3.821496348865024	-4.840442931824757	20.42144900344223	-11.90429649157366	1.64669294995944	7.780548543568996	115.4531363057341	0	0	117.2414424834598	-3.422770339045387	19.71152239735496	-1.180398905471606	49.77051695507119	0	0
8.39999999999991	-3.480955834565344	1.494860952756136	41.4458619427262	0	0.9399999999999999	0	33.44941107234178	-9.600012084312244	-9.048644456307496	38.98087380062525	0.6803445931253064	0	0	0	33.44941107234178	-9.600012084312244	-9.048644456307496	38.98087380062525	0.6803445931253064	0	0	0	-1.395716219830552	3.837948616163966	-4.796297037528217	20.3191745347014	-12.02203108103663	1.530503305880543	7.650420888571193	115.4330985320149	0	0	117.0998886404374	-2.942845333195454	20.14200959851934	-1.344003937091235	49.34040887966322	0	0
8.419999999999909	-3.499677806438323	1.488257820906835	41.39493240988423	0	0.9399999999999999	0	33.45087334475997	-9.600183404948782	-9.048906645777084	38.98229555890333	0.6803694074884262	0	0	0	33.45087334475997	-9.600183404948782	-9.048906645777084	38.98229555890333	0.6803694074884262	0	0	0	-1.413960753913948	3.845426513598488	-4.806928465963504	20.26896305849757	-12.06590334469927	1.454489539509595	7.667589844476645	115.472060484915	0	0	117.1296345299727	-2.987284620110093	20.19587596011019	-1.367884579716863	49.46863273405828	0	0
8.439999999999909	-3.528172135756012	1.476753012573857	41.33512147440989	0	0.9399999999999999	0	33.45498991860389	-9.600670748174336	-9.049649830143851	38.98625829156704	0.6804385702207842	0	0	0	33.45498991860389	-9.600670748174336	-9.049649830143851	38.98625829156704	0.6804385702207842	0	0	0	-1.443526009793686	3.855285816166041	-4.780348312570665	20.22977392467624	-12.13885159944014	1.356667826485796	7.534443076745559	115.462340093428	0	0	117.0812000447615	-2.601469944387068	20.14404642242637	-1.520350341751347	49.54910812175115	0	0
8.459999999999908	-3.55537704554439	1.478142784987042	41.26319449915363	0	0.9399999999999999	0	33.45758544742607	-9.600977132713394	-9.050117582092275	38.98876220114403	0.6804822716870751	0	0	0	33.45758544742607	-9.600977132713394	-9.050117582092275	38.98876220114403	0.6804822716870751	0	0	0	-1.463415794735069	3.874056510775656	-4.763146703233208	20.23514364062611	-12.1811696553512	1.308084899486788	7.499856372499552	115.4915859790565	0	0	116.9337171966479	-2.267506718148133	20.02299824219946	-1.543038103698916	49.57697940394828	0	0
8.479999999999908	-3.560428561668024	1.480392207486563	41.22485806557271	0	0.9399999999999999	0	33.46178932292921	-9.601473301342367	-9.050875210060926	38.99281565757478	0.6805530178478777	0	0	0	33.46178932292921	-9.601473301342367	-9.050875210060926	38.99281565757478	0.6805530178478777	0	0	0	-1.466354548657827	3.878658184192696	-4.730786880734391	20.21545274245454	-12.215213827755	1.201270268431375	7.479301030800255	115.5287780153858	0	0	116.8445694002973	-2.101874519907968	20.05622682860209	-1.463533531664635	49.03111005819474	0	0
8.499999999999908	-3.578132876172693	1.470220605913298	41.18498491149901	0	0.9399999999999999	0	33.46543689670675	-9.601903141922692	-9.0515320020742	38.99633552333488	0.6806144510946196	0	0	0	33.46543689670675	-9.601903141922692	-9.0515320020742	38.99633552333488	0.6806144510946196	0	0	0	-1.48667428511545	3.882541739798094	-4.719194808827786	20.23929524840802	-12.2168778591829	1.132337338596579	7.483965717551176	115.5289601957189	0	0	116.8389244865345	-2.033937393168995	20.08773404134753	-1.428392924000984	48.61092081252553	0	0
8.519999999999907	-3.577370392083776	1.452860487923882	41.13783265103644	0	0.9399999999999999	0	33.46868625470997	-9.602283822499253	-9.052114951624622	38.99948590371616	0.6806694356049633	0	0	0	33.46868625470997	-9.602283822499253	-9.052114951624622	38.99948590371616	0.6806694356049633	0	0	0	-1.497855635908297	3.868834710528624	-4.704334617579784	20.26159270402741	-12.18009678793191	1.09789410856242	7.498911140458508	115.5437240615987	0	0	116.8988528442299	-2.022498650237762	19.9163547856569	-1.465084244552756	49.04599393169028	0	0
8.539999999999907	-3.561988642806149	1.452135556513803	41.10826093175165	0	0.9399999999999999	0	33.47211339039191	-9.602685520423686	-9.052730051174612	39.00280544252848	0.6807273724868861	0	0	0	33.47211339039191	-9.602685520423686	-9.052730051174612	39.00280544252848	0.6807273724868861	0	0	0	-1.487324044807173	3.857785833411818	-4.673189407633489	20.24170214099669	-12.16474251547666	1.064474991396701	7.490426094945609	115.5238812154127	0	0	116.8555898880205	-1.934434444695859	19.7201753444191	-1.424401693706412	49.4578384138852	0	0
